# xmcd
#
# Track frame offsets: 
#        150
#        19318
#        39331
#        58874
#        78436
#        100402
#        122137
#        143942
#        161968
#        181031
#        201823
#        226003
#        246001
#        263559
#        279720
#        297294
#
# Disc length: 4224 seconds
#
# Revision: 0
# Processed by: cddbd v1.5.1PL0 Copyright (c) Steve Scherf et al.
# Submitted via: ExactAudioCopy v0.95a5
#
DISCID=e3107e10
DTITLE=谭咏麟 - 谭咏麟历年经典2
DYEAR=1900
DGENRE=Blues
TTITLE0=Don't Say Goodbye
TTITLE1=酒后吐真言
TTITLE2=自选角度
TTITLE3=捕风汉子
TTITLE4=不见不散
TTITLE5=偏爱
TTITLE6=编织
TTITLE7=黑色快车
TTITLE8=墙上的肖像
TTITLE9=此刻你在何处
TTITLE10=无边的思忆
TTITLE11=幻影
TTITLE12=亮了红灯
TTITLE13=相识费偶然
TTITLE14=理想与和平
TTITLE15=痴心当玩偶
EXTD=
EXTT0=
EXTT1=
EXTT2=
EXTT3=
EXTT4=
EXTT5=
EXTT6=
EXTT7=
EXTT8=
EXTT9=
EXTT10=
EXTT11=
EXTT12=
EXTT13=
EXTT14=
EXTT15=
PLAYORDER=
